<svg width="400" height="400" viewBox="0 0 400 400" xmlns="http://www.w3.org/2000/svg">
  <!-- Center Circle with Folder Icon -->
  <circle cx="200" cy="200" r="60" fill="#0D9488" opacity="0.1"/>
  <path d="M180 180 H220 V190 H230 V220 H170 V190 H180 V180Z" fill="#0D9488"/>
  
  <!-- Orbital Elements -->
  <g transform="translate(200 200)">
    <!-- Mobile App Icon -->
    <g transform="translate(-120 -120)">
      <circle cx="0" cy="0" r="30" fill="#F0FDFA"/>
      <rect x="-10" y="-15" width="20" height="30" rx="2" fill="#0D9488"/>
    </g>
    
    <!-- Web Icon -->
    <g transform="translate(120 -120)">
      <circle cx="0" cy="0" r="30" fill="#F0FDFA"/>
      <path d="M-15 -5 H15 M-15 5 H15" stroke="#0D9488" stroke-width="2"/>
    </g>
    
    <!-- Cloud Icon -->
    <g transform="translate(120 120)">
      <circle cx="0" cy="0" r="30" fill="#F0FDFA"/>
      <path d="M-10 0 Q-5 -10 0 0 T10 0" stroke="#0D9488" fill="none" stroke-width="2"/>
    </g>
    
    <!-- Code Icon -->
    <g transform="translate(-120 120)">
      <circle cx="0" cy="0" r="30" fill="#F0FDFA"/>
      <path d="M-10 0 L-5 -5 M-10 0 L-5 5 M5 -5 L10 0 L5 5" stroke="#0D9488" stroke-width="2" fill="none"/>
    </g>
  </g>
  
  <!-- Connecting Lines -->
  <g stroke="#0D9488" stroke-width="1" opacity="0.3">
    <line x1="200" y1="200" x2="80" y2="80"/>
    <line x1="200" y1="200" x2="320" y2="80"/>
    <line x1="200" y1="200" x2="320" y2="320"/>
    <line x1="200" y1="200" x2="80" y2="320"/>
  </g>
</svg>